<?xml version="1.0" encoding="utf-8"?>
<!DOCTYPE svg PUBLIC "-//W3C//DTD SVG 1.0//EN" "http://www.w3.org/TR/2001/REC-SVG-20010904/DTD/svg10.dtd">
<svg version="1.0" id="Layer_1" xmlns="http://www.w3.org/2000/svg" xmlns:xlink="http://www.w3.org/1999/xlink" x="0px" y="0px"
	 width="250px" height="75px" viewBox="0 0 250 75" enable-background="new 0 0 246.363 35.522"
	 xml:space="preserve">
<g>
	<path fill="#0092B3" d="M44.46,18.19c-2.638-1.731-5.284-3.449-7.928-5.174c-1.413-0.922-2.819-1.856-4.242-2.763
		c-0.966-0.615-2.132-0.124-2.382,0.972c-0.166,0.727,0.141,1.371,0.889,1.859c3.097,2.018,6.193,4.035,9.289,6.053
		c0.207,0.136,0.409,0.277,0.66,0.447c-0.184,0.127-0.3,0.218-0.424,0.295c-3.117,1.915-6.234,3.828-9.352,5.743
		c-0.086,0.053-0.174,0.103-0.26,0.157c-0.826,0.529-1.078,1.474-0.609,2.278c0.449,0.771,1.375,0.991,2.19,0.492
		c4.054-2.481,8.106-4.966,12.154-7.46C45.627,20.363,45.633,18.961,44.46,18.19z"/>
	<path fill="#0092B3" d="M14.404,13.157c0.214-0.133,0.436-0.268,0.612-0.446c0.537-0.544,0.585-1.47,0.134-2.095
		c-0.493-0.682-1.358-0.824-2.155-0.336c-4.01,2.458-8.02,4.919-12.027,7.383c-1.271,0.781-1.295,2.157-0.047,2.979
		c2.143,1.412,4.293,2.811,6.442,4.212c1.894,1.235,3.791,2.467,5.687,3.7c0.546,0.356,1.107,0.375,1.658,0.038
		c0.537-0.329,0.776-0.847,0.744-1.487c-0.034-0.678-0.439-1.083-0.962-1.422c-3.157-2.049-6.308-4.107-9.459-6.165
		c-0.137-0.089-0.267-0.19-0.437-0.313c0.18-0.119,0.317-0.215,0.458-0.302C8.169,16.987,11.288,15.074,14.404,13.157z"/>
	<path fill="#0092B3" d="M120.672,7.914c-2.583-0.293-4.746,0.558-6.475,2.496c-0.027,0.03-0.056,0.062-0.137,0.149
		c-0.043-0.073-0.072-0.145-0.121-0.199c-1.274-1.44-2.863-2.285-4.789-2.465c-3.885-0.361-7.297,2.309-7.88,6.158
		c-0.019,0.123-0.043,0.244-0.064,0.367c0,0.686,0,1.371,0,2.057c0.092,0.422,0.159,0.852,0.278,1.267
		c0.411,1.425,1.168,2.671,2.064,3.837c1.433,1.865,3.148,3.445,4.977,4.91c1.701,1.361,3.49,2.6,5.357,3.725
		c0.126,0.076,0.229,0.125,0.385,0.029c3.223-1.967,6.253-4.178,8.872-6.912c1.243-1.299,2.347-2.703,3.104-4.349
		c0.348-0.755,0.604-1.536,0.697-2.365c0.006-0.048,0.029-0.095,0.045-0.142c0-0.686,0-1.371,0-2.057
		c-0.086-0.424-0.148-0.854-0.262-1.271C125.967,10.369,123.523,8.237,120.672,7.914z"/>
	<path fill="#0092B3" d="M242.608,9.039c-2.502-1.557-5.244-2.334-8.221-2.334c-1.489,0.066-2.929,0.287-4.312,0.659
		c-1.388,0.373-2.589,0.998-3.603,1.878c-1.22-1.013-2.574-1.692-4.062-2.029c-1.489-0.338-3.01-0.508-4.565-0.508
		c-2.911,0.137-5.567,0.979-7.97,2.537c-0.092,0.059-0.18,0.125-0.27,0.191c0.023-0.019,0.047-0.039,0.07-0.055
		c-1.012-0.881-2.262-1.642-3.653-2.015c-1.385-0.372-2.822-0.593-4.312-0.659c-2.978,0-5.718,0.777-8.22,2.334
		c-1.167,0.726-2.059,1.801-2.683,3.219c-0.194-0.307-0.401-0.604-0.622-0.892c-2.031-2.638-4.637-3.958-7.814-3.958
		c-1.762,0-3.249,0.343-4.469,1.017c-1.419,0.812-2.502,1.861-3.245,3.147v-8.12c0-0.948-0.338-1.759-1.014-2.438
		C172.967,0.339,172.155,0,171.21,0h-3.454v23.243c0,4.802,1.388,8.053,4.161,9.739c2.775,1.693,5.786,2.54,9.032,2.54
		c1.692,0,3.401-0.286,5.126-0.86c1.483-0.494,2.702-1.253,3.661-2.272v1.918h3.553c1.011,0,1.845-0.32,2.486-0.965
		c0.644-0.64,0.964-1.469,0.964-2.484V17.055c0-1.624,0.494-2.804,1.472-3.55c0.98-0.745,2.078-1.118,3.298-1.118
		c1.219,0,2.318,0.373,3.299,1.118c0.979,0.746,1.474,1.926,1.474,3.55v1.188c0,0.079-0.004,0.155-0.004,0.233v15.832h7.102V17.055
		c0-1.624,0.474-2.804,1.421-3.55c0.946-0.745,2.029-1.118,3.248-1.118c1.217,0,2.318,0.373,3.301,1.118
		c0.979,0.746,1.469,1.926,1.469,3.55v1.421v15.832h7.004V18.476v-1.421c0-1.624,0.489-2.804,1.47-3.55
		c0.981-0.745,2.082-1.118,3.3-1.118c1.217,0,2.315,0.373,3.299,1.118c0.979,0.746,1.471,1.926,1.471,3.55v13.804
		c0,1.016,0.318,1.845,0.965,2.484c0.641,0.645,1.473,0.965,2.484,0.965h3.554V18.476C246.363,13.741,245.113,10.597,242.608,9.039z
		 M184.705,27.504c-1.016,1.421-2.471,2.132-4.363,2.132c-1.827,0-3.249-0.711-4.263-2.132c-0.95-1.281-1.42-3.351-1.42-6.189
		c0-2.438,0.505-4.365,1.521-5.784c1.015-1.354,2.471-2.032,4.365-2.032c1.76,0,3.145,0.711,4.16,2.132
		c1.016,1.354,1.522,3.247,1.522,5.685C186.228,24.021,185.721,26.087,184.705,27.504z"/>
	<polygon fill="#0092B3" points="61.521,22.472 61.159,24.294 61.083,24.294 60.697,22.472 57.987,13.882 56.015,13.882 
		53.318,22.472 52.968,24.107 52.893,24.107 52.606,22.472 50.371,13.882 47.924,13.882 51.845,27.391 53.83,27.391 56.402,19.163 
		56.938,16.878 57.013,16.865 57.575,19.163 60.185,27.391 62.17,27.391 66.09,13.882 63.643,13.882 	"/>
	<rect x="68.7" y="13.882" fill="#0092B3" width="2.459" height="13.509"/>
	<rect x="68.7" y="7.914" fill="#0092B3" width="2.459" height="2.509"/>
	<path fill="#0092B3" d="M80.092,25.58c-0.171,0.033-0.327,0.05-0.468,0.05c-0.433,0-0.78-0.129-1.042-0.387
		s-0.393-0.703-0.393-1.336v-8.203h2.559v-1.822h-2.559v-3.259h-2.46v3.259h-2.147v1.822h2.147v8.203
		c0,1.29,0.295,2.237,0.887,2.841c0.591,0.604,1.386,0.904,2.385,0.904c0.357,0,0.713-0.048,1.067-0.144
		c0.354-0.096,0.622-0.218,0.805-0.368l-0.325-1.686C80.415,25.505,80.263,25.547,80.092,25.58z"/>
	<path fill="#0092B3" d="M90.211,13.632c-0.824,0-1.575,0.181-2.253,0.543c-0.679,0.362-1.251,0.868-1.717,1.518V7.914h-2.46v19.477
		h2.46v-9.976c0.357-0.55,0.813-0.984,1.367-1.305c0.553-0.32,1.171-0.48,1.854-0.48c0.949,0,1.662,0.267,2.141,0.799
		c0.479,0.532,0.718,1.356,0.718,2.472v8.49h2.459v-8.465c0-1.798-0.401-3.13-1.205-3.995
		C92.773,14.064,91.651,13.632,90.211,13.632z"/>
	<path fill="#0092B3" d="M141.057,13.632c-0.841,0-1.575,0.158-2.203,0.475c-0.629,0.316-1.155,0.774-1.579,1.373V7.914h-2.46
		v19.477h2.01l0.3-1.785c0.433,0.674,0.979,1.184,1.636,1.529c0.657,0.345,1.432,0.518,2.322,0.518c1.64,0,2.928-0.597,3.864-1.791
		s1.404-2.766,1.404-4.713v-0.263c0-2.172-0.466-3.925-1.398-5.256C144.021,14.298,142.722,13.632,141.057,13.632z M143.892,21.148
		c0,1.356-0.283,2.446-0.85,3.271c-0.565,0.824-1.428,1.236-2.584,1.236c-0.782,0-1.43-0.188-1.941-0.562
		c-0.512-0.375-0.927-0.896-1.242-1.562v-5.855c0.308-0.624,0.722-1.121,1.242-1.491c0.52-0.371,1.159-0.556,1.916-0.556
		c1.165,0,2.033,0.488,2.604,1.467c0.57,0.978,0.855,2.241,0.855,3.789V21.148z"/>
	<path fill="#0092B3" d="M153.854,24.082h-0.075l-0.437-1.698l-2.847-8.502h-2.747l5.02,13.234l-0.587,1.41
		c-0.225,0.566-0.504,1.082-0.837,1.549c-0.333,0.466-0.762,0.699-1.286,0.699c-0.092,0-0.31-0.013-0.655-0.038
		c-0.346-0.024-0.493-0.033-0.443-0.024l-0.249,1.935c0.166,0.042,0.403,0.086,0.711,0.132c0.309,0.045,0.562,0.068,0.762,0.068
		c1.082,0,1.941-0.337,2.578-1.012c0.637-0.674,1.126-1.465,1.468-2.372l5.681-15.581h-2.734L153.854,24.082z"/>
</g>
</svg>
