<?xml version="1.0" encoding="utf-8"?>
<!-- Generator: Adobe Illustrator 16.0.4, SVG Export Plug-In . SVG Version: 6.00 Build 0)  -->
<!DOCTYPE svg PUBLIC "-//W3C//DTD SVG 1.0//EN" "http://www.w3.org/TR/2001/REC-SVG-20010904/DTD/svg10.dtd">
<svg version="1.0" id="Layer_1" xmlns="http://www.w3.org/2000/svg" xmlns:xlink="http://www.w3.org/1999/xlink" x="0px" y="0px"
	 width="308.7px" height="61.6px" viewBox="0 0 308.7 61.6" enable-background="new 0 0 308.7 61.6" xml:space="preserve">
<g>
	<path fill="#75787D" d="M183.1,43.3c-0.4,0.2-0.9,0.5-1.301,0.7c-1.299,0.6-2.6,0.7-3.799,0.7c-1.301,0-3.201-0.101-5.201-1.5
		c-2.799-2-4-5.4-4-8.301c0-6.1,5-9.1,9-9.1c1.4,0,2.9,0.4,4.101,1.1c2,1.301,2.5,3,2.8,3.9l-9.3,3.7l-3,0.2
		c1,5,4.399,7.899,8.101,7.899c2,0,3.5-0.7,4.799-1.399L183.1,43.3L183.1,43.3z M179.4,31.5c0.7-0.3,1.101-0.5,1.101-1.101
		c0-1.6-1.801-3.399-3.9-3.399c-1.6,0-4.5,1.2-4.5,5.5c0,0.7,0.1,1.399,0.1,2.1L179.4,31.5L179.4,31.5z M167.799,44.2l1.5-0.9
		c-0.699-0.1-1.299-0.1-2-0.2C166,43,165.7,42.7,165.7,41.2V32.1c0-5.6,0-10.399,0.4-13.399c0.199-1.4,0.6-1.601,1.8-2.301h-5.601
		l-3,1.4h3.101c0,1.8-0.2,4.3-0.2,6.3C162.1,28.2,162,32.6,162,35.6V42c0,0.8-0.201,0.899-1.101,2.1h6.899V44.2z M154.9,27.7
		c0.899,0.699,2.8,2.3,2.8,5.3c0,2.899-1.699,4.3-3.3,5.6c-0.5,0.5-1.1,1.101-1.1,1.9c0,0.899,0.6,1.3,1,1.7l1.4,1.1
		c1.7,1.5,3.301,2.8,3.301,5.5c0,3.7-3.601,7.4-10.4,7.4c-5.7,0-8.5-2.7-8.5-5.601c0-1.399,0.7-3.399,3-4.8c2.4-1.5,5.8-1.7,7.5-1.8
		c-0.6-0.7-1.2-1.5-1.2-2.7c0-0.7,0.2-1.1,0.4-1.5c-0.4,0-0.9,0.1-1.3,0.1c-4.2,0-6.5-3.1-6.5-6.199c0-1.801,0.8-3.801,2.5-5.301
		c2.2-1.899,4.9-2.199,7.1-2.199h8.1l-2.5,1.399h-2.3V27.7z M152.1,45.2c-0.3,0-0.5,0-0.9,0c-0.4,0-2.5,0.1-4.1,0.6
		c-0.9,0.3-3.4,1.3-3.4,4.1c0,2.801,2.7,4.801,6.9,4.801c3.8,0,5.8-1.801,5.8-4.301C156.4,48.4,155.1,47.3,152.1,45.2L152.1,45.2z
		 M153.2,37.7c0.9-0.9,1-2.2,1-2.9c0-2.8-1.7-7.3-5-7.3c-1,0-2.1,0.5-2.8,1.3c-0.7,0.8-0.9,1.9-0.9,2.9c0,2.6,1.5,7,4.9,7
		C151.5,38.8,152.6,38.4,153.2,37.7L153.2,37.7z M130.4,44.7c-6.3,0-9.6-4.9-9.6-9.301c0-5.199,4.2-9.6,10.2-9.6
		c5.8,0,9.4,4.5,9.4,9.3C140.4,39.7,136.9,44.7,130.4,44.7L130.4,44.7z M135.4,41.5c0.9-1.3,1.2-2.8,1.2-4.4
		c0-3.5-1.7-10.1-6.5-10.1c-1.3,0-2.6,0.5-3.5,1.3c-1.5,1.4-1.8,3.1-1.8,4.8c0,3.9,1.9,10.3,6.7,10.3
		C132.9,43.5,134.5,42.7,135.4,41.5L135.4,41.5z M109.5,44.7c-6.3,0-9.6-4.9-9.6-9.301c0-5.199,4.2-9.6,10.2-9.6
		c5.8,0,9.4,4.5,9.4,9.3C119.5,39.7,115.9,44.7,109.5,44.7L109.5,44.7z M114.4,41.5c0.9-1.3,1.2-2.8,1.2-4.4
		c0-3.5-1.7-10.1-6.5-10.1c-1.3,0-2.6,0.5-3.5,1.3c-1.5,1.4-1.8,3.1-1.8,4.8c0,3.9,1.9,10.3,6.7,10.3
		C111.9,43.5,113.5,42.7,114.4,41.5L114.4,41.5z M97.3,43.3v-4.5c0-0.4,0-1.4,0.1-1.8c0.1-0.3,0.1-0.4,0.4-0.601l1-0.899H91l-3,1.6
		l5.6-0.3v5.9C92.5,43.1,91.3,43.6,88.9,43.6c-8.1,0-13.1-6.5-13.1-13.5C75.8,23.6,80.2,19.2,86,19.2c4.4,0,6.6,2.3,7.9,3.5L93,24.2
		l1.3-0.301L97.4,21c-0.8-0.601-2.1-1.5-4.9-2.3c-1.7-0.5-3.7-0.801-5.7-0.801c-9.4,0-14.9,6.601-14.9,13.801
		C71.9,37.6,75.8,45.1,86,45.1c2,0,4-0.3,6.1-0.6L97.3,43.3L97.3,43.3z"/>
</g>
<g>
	<g>
		<path fill="#F7991F" d="M9.8,10.1v28.4l12.9-13.2l11.4,11.4L58.2,12.6v-2.2c0-2.1-1.7-3.699-3.7-3.699c-9.1,0-32.5,0.1-41.3,0
			C11.3,6.7,9.8,8.2,9.8,10.1z"/>
	</g>
	<g>
		<polygon fill="#F7991F" points="28.4,30.9 22.6,36.8 28.4,42.7 		"/>
	</g>
	<g>
		<path fill="#F15823" d="M9.7,49.6v2c0,1.9,1.6,3.5,3.5,3.5h41.6c1.9,0,3.4-1.5,3.4-3.399V24L34.1,48.1L22.7,36.7
			C22.7,36.7,9.8,49.7,9.7,49.6z"/>
	</g>
</g>
<g>
	<path fill="#75787D" d="M207.5,36.2H198.9l-3,7.5h-1.601L202.9,22.4h0.899l8.4,21.301H210.5L207.5,36.2z M199.4,34.9H207
		l-2.9-7.699c-0.2-0.601-0.5-1.4-0.9-2.5c-0.3,0.899-0.5,1.8-0.9,2.5L199.4,34.9z"/>
	<path fill="#75787D" d="M225.799,43.7V33.5c0-1.601-0.299-2.7-1-3.5c-0.699-0.8-1.699-1.101-3.1-1.101c-1.9,0-3.3,0.5-4.199,1.4
		c-0.9,1-1.301,2.5-1.301,4.6v8.7h-1.4V27.9H216l0.299,2.2h0.101c1-1.6,2.899-2.5,5.5-2.5c3.601,0,5.399,1.9,5.399,5.8V43.7H225.799
		z"/>
	<path fill="#75787D" d="M240.7,43.7l-0.4-2.5h-0.1c-0.8,1-1.6,1.699-2.5,2.199c-0.8,0.4-1.8,0.601-3,0.601c-1.6,0-2.8-0.4-3.6-1.2
		c-0.9-0.8-1.301-1.9-1.301-3.3c0-1.5,0.601-2.7,1.9-3.601c1.301-0.899,3.1-1.3,5.6-1.399l3-0.101v-1c0-1.5-0.299-2.6-0.899-3.399
		s-1.601-1.101-3-1.101c-1.5,0-3,0.4-4.601,1.2l-0.5-1.3c1.701-0.8,3.5-1.2,5.101-1.2c1.7,0,3,0.5,3.899,1.4
		c0.9,0.899,1.301,2.3,1.301,4.2v10.5H240.7z M234.9,42.7c1.7,0,3-0.5,4-1.4s1.5-2.3,1.5-4v-1.6l-2.8,0.1c-2.2,0.1-3.801,0.5-4.7,1
		c-0.899,0.6-1.399,1.5-1.399,2.7c0,1,0.299,1.8,0.899,2.3C233,42.4,233.799,42.7,234.9,42.7z"/>
	<path fill="#75787D" d="M247.799,43.7H246.4V21.1h1.399V43.7z"/>
	<path fill="#75787D" d="M249.799,27.9h1.5l3.301,8.9c1,2.7,1.699,4.6,1.9,5.5h0.1c0.4-1.2,1.1-3.1,2-5.6l3.3-8.801h1.5l-7.101,18.4
		c-0.6,1.5-1.1,2.5-1.399,3s-0.8,0.9-1.399,1.2c-0.5,0.3-1.101,0.399-1.9,0.399c-0.6,0-1.2-0.1-1.801-0.3v-1.3
		c0.601,0.2,1.201,0.2,1.801,0.2c0.5,0,0.9-0.101,1.3-0.3c0.399-0.2,0.7-0.601,1-1.101s0.7-1.3,1.101-2.3
		c0.399-1,0.699-1.8,0.799-2.1L249.799,27.9z"/>
	<path fill="#75787D" d="M271.5,42.7c0.899,0,1.699-0.101,2.399-0.2v1.2c-0.7,0.199-1.5,0.3-2.399,0.3c-1.4,0-2.4-0.4-3.101-1.101
		c-0.7-0.699-1-1.899-1-3.5V29.2H265V28.4l2.299-0.699L268,24.1h0.699v3.8h4.6V29.2h-4.6v10c0,1.199,0.2,2.1,0.6,2.699
		C269.9,42.4,270.6,42.7,271.5,42.7z"/>
	<path fill="#75787D" d="M275.9,23.5c0-0.9,0.3-1.4,0.899-1.4c0.301,0,0.5,0.101,0.701,0.4c0.199,0.2,0.299,0.6,0.299,1
		c0,0.399-0.1,0.8-0.299,1c-0.201,0.3-0.4,0.399-0.701,0.399C276.2,24.9,275.9,24.5,275.9,23.5z M277.6,43.7h-1.4V27.9h1.4V43.7z"/>
	<path fill="#75787D" d="M287.4,44c-2.3,0-4-0.7-5.3-2.101c-1.301-1.399-1.9-3.399-1.9-6c0-2.6,0.7-4.699,2-6.1
		c1.301-1.4,3.1-2.2,5.5-2.2c1.4,0,2.7,0.2,3.9,0.7l-0.4,1.3c-1.4-0.5-2.6-0.7-3.6-0.7c-1.9,0-3.4,0.601-4.4,1.801
		c-1,1.199-1.5,2.899-1.5,5.199c0,2.101,0.5,3.801,1.5,5c1,1.2,2.4,1.801,4.2,1.801c1.399,0,2.8-0.301,4-0.801V43.2
		C290.299,43.8,289,44,287.4,44z"/>
	<path fill="#75787D" d="M304.4,39.6c0,1.4-0.5,2.5-1.601,3.3C301.7,43.7,300.2,44,298.2,44c-2.1,0-3.8-0.3-5-1V41.4
		c1.6,0.801,3.301,1.2,5,1.2c1.6,0,2.7-0.3,3.6-0.8c0.9-0.5,1.201-1.2,1.201-2.1c0-0.801-0.301-1.5-1-2
		c-0.601-0.5-1.701-1.101-3.201-1.601c-1.6-0.6-2.699-1.1-3.299-1.5C294.9,34.2,294.4,33.7,294.1,33.2c-0.301-0.5-0.5-1.2-0.5-1.9
		c0-1.2,0.5-2.1,1.5-2.8s2.4-1,4.199-1c1.701,0,3.301,0.3,4.9,1l-0.5,1.3c-1.6-0.6-3-1-4.3-1s-2.3,0.2-3.101,0.6
		c-0.799,0.4-1.1,1-1.1,1.801c0,0.8,0.301,1.5,0.9,2s1.699,1,3.4,1.699c1.399,0.5,2.5,1,3.1,1.4s1.1,0.9,1.5,1.4
		C304.299,38.3,304.4,38.9,304.4,39.6z"/>
</g>
</svg>
