<?xml version="1.0" encoding="utf-8"?>
<!-- Generator: Adobe Illustrator 16.0.4, SVG Export Plug-In . SVG Version: 6.00 Build 0)  -->
<!DOCTYPE svg PUBLIC "-//W3C//DTD SVG 1.1//EN" "http://www.w3.org/Graphics/SVG/1.1/DTD/svg11.dtd">
<svg version="1.1" id="Layer_1" xmlns="http://www.w3.org/2000/svg" xmlns:xlink="http://www.w3.org/1999/xlink" x="0px" y="0px"
	 width="180px" height="180px" viewBox="0 0 180 180" enable-background="new 0 0 180 180" xml:space="preserve">
	 <defs>
	 	<linearGradient id="grad2" x1="0%" y1="100%" x2="0%" y2="0%">
	 	            <stop offset="0%"  stop-color="#e65100"/>
	 	            <stop offset="0%" stop-color="transparent"/>
	 	</linearGradient>
	 </defs>
	 
<path fill="url(#grad2)" d="M0.472,180h178.161c0.414-0.715,0.682-1.54,0.787-2.528c0.673-6.328,0.29-12.581-0.746-18.84
	c-0.742-4.469-2.719-8.26-5.561-11.729c-3.864-4.716-8.795-7.942-14.463-9.785c-8.393-2.728-16.98-4.836-25.389-7.523
	c-5.521-1.767-11.003-3.793-16.248-6.25c-4.676-2.191-7.756-6.023-8.391-11.43c-0.192-1.637-0.039-3.024,1.354-4.238
	c1.437-1.255,2.569-2.853,3.937-4.196c0.539-0.524,1.315-0.931,2.054-1.113c6.771-1.668,13.598-3.135,20.325-4.968
	c2.922-0.795,5.65-2.309,8.532-3.523c-0.733-1.296-1.33-2.222-1.805-3.207c-1.572-3.268-3.158-6.532-4.632-9.843
	c-2.096-4.702-1.589-9.696-1.311-14.604c0.723-12.774-0.499-25.329-3.86-37.669c-2.613-9.581-8.312-16.657-17.533-20.477
	c-14.872-6.158-29.405-5.403-43.413,2.782c-0.641,0.372-1.317,0.82-2.022,0.929C62.326,13.008,56.532,17.43,52.915,24.3
	c-2.074,3.931-3.338,8.389-4.354,12.752c-2.637,11.337-3.286,22.905-3.389,34.518c-0.062,7.078-0.456,14.122-5.06,20.258
	c1.223,0.82,2.265,1.79,3.495,2.302c5.36,2.222,10.642,4.805,16.21,6.29c4.345,1.159,7.725,2.786,10.621,6.38
	c1.976,2.45,2.277,4.621,1.708,7.303c-0.651,3.072-2.283,5.663-4.73,7.513c-2.55,1.925-5.281,3.699-8.149,5.101
	c-6.768,3.305-14.173,4.567-21.447,6.24c-8.022,1.848-15.947,4.027-23.139,8.229c-4.619,2.701-8.314,6.31-10.384,11.317
	c-3.262,7.896-4.784,16.132-4.387,24.691C-0.043,178.219,0.138,179.157,0.472,180z"/>
</svg>
