<?xml version="1.0" encoding="utf-8"?>
<!-- Generator: Adobe Illustrator 16.0.4, SVG Export Plug-In . SVG Version: 6.00 Build 0)  -->
<!DOCTYPE svg PUBLIC "-//W3C//DTD SVG 1.0//EN" "http://www.w3.org/TR/2001/REC-SVG-20010904/DTD/svg10.dtd">
<svg version="1.0" id="Layer_1" xmlns="http://www.w3.org/2000/svg" xmlns:xlink="http://www.w3.org/1999/xlink" x="0px" y="0px"
	 width="437.052px" height="473.675px" viewBox="0 0 437.052 473.675" enable-background="new 0 0 437.052 473.675"
	 xml:space="preserve">
<g>
	<path fill-rule="evenodd" clip-rule="evenodd" d="M352.196,218.321c-7.006,2.953-13.632,6.627-20.731,8.561
		c-16.342,4.452-32.926,8.015-49.379,12.069c-1.789,0.44-3.678,1.425-4.982,2.704c-3.325,3.263-6.072,7.147-9.564,10.193
		c-3.383,2.951-3.754,6.319-3.288,10.295c1.539,13.135,9.021,22.447,20.383,27.768c12.742,5.965,26.061,10.891,39.476,15.182
		c20.418,6.529,41.288,11.648,61.672,18.275c13.773,4.477,25.749,12.314,35.135,23.773c6.903,8.43,11.707,17.641,13.505,28.498
		c2.518,15.201,3.449,30.391,1.816,45.764c-0.594,5.58-3.187,9.115-7.91,11.777c-17.538,9.879-36.413,16.33-55.675,21.695
		c-34.932,9.73-70.604,14.959-106.76,17.322c-39.681,2.594-79.294,1.748-118.8-2.357c-42.486-4.414-84.372-11.873-124.307-27.816
		c-4.47-1.785-8.699-4.164-13.092-6.15c-6.547-2.963-9.229-8.303-9.545-15.143c-0.961-20.795,2.732-40.799,10.66-59.984
		c5.027-12.168,14-20.932,25.226-27.492c17.47-10.209,36.722-15.506,56.214-19.992c17.67-4.066,35.658-7.131,52.101-15.16
		c6.966-3.402,13.604-7.711,19.797-12.391c5.944-4.492,9.907-10.789,11.491-18.252c1.382-6.512,0.65-11.785-4.148-17.738
		c-7.039-8.729-15.246-12.68-25.803-15.498c-13.527-3.609-26.361-9.882-39.381-15.281c-2.99-1.24-5.518-3.596-8.488-5.594
		c11.182-14.901,12.137-32.014,12.29-49.21c0.251-28.211,1.827-56.314,8.232-83.854c2.466-10.601,5.544-21.432,10.575-30.982
		c8.791-16.685,22.866-27.433,42.111-30.398c1.716-0.265,3.357-1.351,4.914-2.26c34.03-19.884,69.336-21.718,105.463-6.758
		c22.406,9.278,36.249,26.467,42.59,49.742c8.168,29.979,11.14,60.479,9.383,91.511c-0.675,11.925-1.905,24.058,3.182,35.48
		c3.583,8.046,7.435,15.974,11.255,23.912C348.964,212.924,350.412,215.174,352.196,218.321z"/>
</g>
</svg>
