<svg  width="0" height="0">
	<clipPath id="clipGirl">
		<path d="M269.321,229.801c-2.662,1.122-5.18,2.519-7.878,3.254c-6.21,1.691-12.513,3.045-18.764,4.586c-0.681,0.167-1.397,0.542-1.895,1.027c-1.263,1.24-2.307,2.716-3.634,3.874c-1.286,1.12-1.427,2.401-1.25,3.912c0.586,4.991,3.429,8.529,7.747,10.552c4.841,2.267,9.902,4.139,15,5.77c7.76,2.481,15.689,4.427,23.437,6.945c5.233,1.701,9.784,4.679,13.352,9.033c2.623,3.203,4.448,6.703,5.132,10.829c0.957,5.776,1.31,11.549,0.69,17.391c-0.227,2.121-1.212,3.464-3.007,4.475c-6.664,3.755-13.836,6.206-21.156,8.245c-13.274,3.698-26.83,5.685-40.569,6.582c-15.08,0.986-30.132,0.665-45.145-0.896c-16.146-1.677-32.062-4.512-47.238-10.569c-1.699-0.679-3.305-1.582-4.975-2.338c-2.488-1.125-3.507-3.154-3.627-5.754c-0.366-7.903,1.038-15.505,4.05-22.794c1.91-4.624,5.321-7.955,9.586-10.448c6.639-3.879,13.955-5.892,21.361-7.597c6.715-1.545,13.551-2.71,19.799-5.762c2.647-1.293,5.169-2.93,7.523-4.708c2.259-1.707,3.765-4.1,4.367-6.936c0.525-2.475,0.247-4.479-1.576-6.741c-2.675-3.317-5.794-4.819-9.805-5.89c-5.141-1.371-10.017-3.755-14.965-5.807c-1.136-0.471-2.098-1.367-3.226-2.125c4.25-5.664,4.613-12.167,4.67-18.701c0.095-10.72,0.695-21.399,3.128-31.865c0.937-4.029,2.106-8.144,4.019-11.773c3.34-6.341,8.689-10.424,16.002-11.552c0.652-0.101,1.276-0.514,1.868-0.858c12.931-7.557,26.348-8.253,40.076-2.568c8.514,3.526,13.774,10.058,16.185,18.903c3.104,11.392,4.232,22.982,3.565,34.774c-0.257,4.532-0.725,9.142,1.21,13.483c1.361,3.057,2.824,6.07,4.277,9.087C268.092,227.75,268.643,228.605,269.321,229.801z"/>
	</clipPath>
</svg>
