<svg width="0" height="0">
<path fill-rule="evenodd" clip-rule="evenodd" d="M120.619,127.535c-1.229-11.429-2.976-22.456-3.493-33.54
	c-1.133-24.289,3.177-47.202,19.966-66.113c14.482-16.314,33.747-23.292,54.562-26.48c27.359-4.19,52.981,1.012,76.602,15.625
	c0.968,0.599,2.062,1.142,3.165,1.348c28.565,5.336,43.821,24.03,50.474,50.903c1.662,6.713,2.171,13.839,2.259,20.787
	c0.154,12.244-0.423,24.497-0.695,36.837c6.365,1.066,7.312,2.025,6.201,9.333c-1.147,7.545-2.561,15.089-4.51,22.462
	c-2.056,7.774-6.402,14.333-13.406,18.611c-2.873,1.756-4.013,3.924-4.503,7.142c-2.461,16.165-5.97,32.108-13.135,46.917
	c-2.804,5.795-6.303,11.381-10.253,16.465c-6.351,8.172-6.502,19.373,1.093,26.791c3.613,3.529,8.043,6.746,12.704,8.57
	c10.033,3.926,20.309,7.439,30.75,10.076c20.463,5.168,41.494,8.387,60.86,17.229c8.586,3.92,17.054,8.404,24.84,13.711
	c18.778,12.797,29.393,30.762,29.945,53.666c0.303,12.582-0.812,25.221-1.7,37.803c-0.556,7.871-5.083,13.303-11.795,17.436
	c-22.167,13.645-46.194,22.848-71.063,29.947c-59.624,17.018-120.427,21.473-182.052,16.34
	c-46.411-3.865-91.461-13.693-134.339-32.146c-11.869-5.107-23.032-11.863-34.475-17.945c-3.78-2.01-5.659-5.314-6.349-9.582
	c-3.084-19.086-3.161-38.129,0.598-57.117c2.027-10.24,8.577-17.922,15.217-25.4c12.512-14.092,28.489-23.164,46.113-28.729
	c21.386-6.754,43.252-11.971,64.82-18.164c7.323-2.104,14.553-4.756,21.51-7.861c11.397-5.09,15.793-14.676,15.435-26.719
	c-0.046-1.537-0.654-3.307-1.58-4.531c-14.963-19.786-23.22-42.46-28.977-66.272c-0.527-2.184-1.935-4.541-3.638-5.991
	c-13.501-11.499-20.281-26.121-20.649-43.718C110.993,129.161,112.394,128.207,120.619,127.535z"/>
</svg>
