<svg widht="0" height="0">
	<clipPath id="clipMan">
		<path d="M14.861,180c-0.198-0.105-0.386-0.255-0.597-0.311
			c-3.586-0.944-5.326-2.841-5.688-6.439c-1.59-15.77,3.661-28.616,16.455-38.188c7.61-5.694,16.249-9.427,24.963-13.026
			c3.776-1.56,7.539-3.181,11.198-4.996c6.6-3.274,9.736-8.667,9.335-16.071c-0.091-1.694-0.055-3.396-0.164-5.088
			c-0.147-2.292-0.917-4.407-2.573-6.001c-3.887-3.737-6.463-8.268-8.371-13.233c-0.917-2.387-2.267-4.384-4.258-6.088
			c-3.332-2.852-5.188-6.53-5.372-11.024c-0.155-3.793,1.144-6.821,4.431-8.734c2.008-1.168,2.827-2.727,2.472-4.918
			c-0.738-4.55-1.277-9.155-2.375-13.621c-2.754-11.21,0.92-19.015,9.827-24.826c13.215-8.62,27.405-9.741,41.968-3.384
			c4.202,1.834,7.567,4.822,10.238,8.587c0.334,0.471,1.082,0.882,1.658,0.91c5.644,0.275,8.605,2.949,8.424,8.756
			c-0.16,5.109-1.154,10.194-1.825,15.283c-0.397,3.01-0.923,6.003-1.312,9.015c-0.204,1.574,0.36,2.877,1.799,3.706
			c5.553,3.197,6.067,8.401,4.3,13.713c-0.948,2.852-2.869,5.023-4.975,7.115c-1.251,1.242-2.462,2.706-3.146,4.304
			c-2.321,5.413-4.935,10.556-9.206,14.787c-1.193,1.182-2.115,3.153-2.217,4.819c-0.234,3.886-0.165,7.838,0.293,11.703
			c0.425,3.59,2.622,6.471,5.691,8.282c3.757,2.219,7.672,4.232,11.688,5.936c8.399,3.562,16.853,6.973,24.529,12.006
			c8.377,5.492,14.71,12.611,17.84,22.285c1.906,5.896,2.065,11.977,1.568,18.07c-0.322,3.948-2.975,5.873-6.62,6.672
			C114.847,180,64.854,180,14.861,180z"/>
	</clipPath>
</svg>
