<?xml version="1.0" encoding="utf-8"?>
<!-- Generator: Adobe Illustrator 16.0.4, SVG Export Plug-In . SVG Version: 6.00 Build 0)  -->
<!DOCTYPE svg PUBLIC "-//W3C//DTD SVG 1.0//EN" "http://www.w3.org/TR/2001/REC-SVG-20010904/DTD/svg10.dtd">
<svg version="1.0" id="Layer_1" xmlns="http://www.w3.org/2000/svg" xmlns:xlink="http://www.w3.org/1999/xlink" x="0px" y="0px"
	 width="160px" height="292.646px" viewBox="0 0 160 292.646" enable-background="new 0 0 160 292.646" xml:space="preserve">
<g>
	<circle fill="#FFFFFF" cx="109.009" cy="173.963" r="4.311"/>
	<polygon fill="#FFFFFF" points="32.743,204.617 54.09,225.694 90.057,225.694 90.078,214.586 54.33,214.586 	"/>
	<polygon fill="#FFFFFF" points="96.898,214.586 96.921,225.694 122.019,225.694 143.367,204.617 121.78,214.586 	"/>
	<polygon fill="#FFFFFF" points="123.48,240.816 88.58,284.978 26.554,240.17 26.562,147.462 30.463,154.743 30.581,154.686 
		30.495,154.743 54.811,193.181 54.811,208.527 59.86,208.527 59.86,191.559 35.347,152.36 35.521,152.275 29.743,141.604 
		92.541,133.724 131.75,141.319 123.676,152.217 123.514,162.199 96.215,162.323 96.215,202.468 82.077,202.468 82.077,196.409 
		77.028,196.409 77.028,207.518 102.273,207.518 102.273,167.896 121.382,167.81 110.353,191.76 110.353,207.518 115.401,207.518 
		115.401,192.979 123.48,175.772 123.48,208.881 128.529,205.882 128.529,167.778 129.324,167.774 129.399,154.06 141.566,137.504 
		92.76,128.06 21.06,137.052 20.912,137.041 20.778,243.035 89.383,292.646 128.529,242.767 128.529,224.077 123.48,228.876 	"/>
	<path fill="#FFFFFF" d="M147.143,48.35l-34.314-16.132L92.854,0L65.726,32.093L14.701,48.167L0,103.288l20.199,28.086l72.243-8.719
		l52.148,9.3L160,102.872L147.143,48.35z M141.555,125.726l-48.953-8.729l-69.789,8.423L6.092,102.17l13.226-49.588l49.637-15.636
		L92.156,9.499l16.788,27.08l33.37,15.688l11.755,49.845L141.555,125.726z"/>
	<rect x="82.077" y="231.753" fill="#FFFFFF" width="20.197" height="5.05"/>
	<polygon fill="#FFFFFF" points="78.743,96.646 92.624,106.777 105.612,96.815 92.579,30.829 	"/>
	<polygon fill="#FFFFFF" points="49.762,158.035 49.762,168.134 90.156,168.134 90.156,162.074 54.811,162.074 54.811,158.035 	"/>
	<circle fill="#FFFFFF" cx="75.823" cy="173.932" r="4.31"/>
</g>
</svg>
